# xmcd
#
# Track frame offsets:
#   150
#   17148
#   42016
#   64670
#   93350
#   104552
#   115180
#   126741
#   141744
#   164619
#   179254
#   200918
#   222686
#   242897
#   255414
#   277674
#   302001
#   316514
#   330982
#   342547
#
# Disc length: 4725 seconds
#
# Revision: 0
# Processed by: cddbd v1.4PL0 Copyright (c) Steve Scherf et al.
# Submitted via: uFREEDB 1.6.0
#
DISCID=33127314
DTITLE=gaither - gaither
DYEAR=1900
DGENRE=Gospel and Religious
TTITLE0=what a friend we have in jesus
TTITLE1=it is well with my soul
TTITLE2=where could i go
TTITLE3=a house of gold
TTITLE4=jesus loves me
TTITLE5=move that mountain
TTITLE6=get away, jordan
TTITLE7=06
TTITLE8=the old rugged cross made the difference
TTITLE9=just a closer walk
TTITLE10=it is finished
TTITLE11=alpha and omega
TTITLE12=he's alive
TTITLE13=o happy day
TTITLE14=at the cross
TTITLE15=master of the wind
TTITLE16=majesty
TTITLE17=medley
TTITLE18=i'd rather have jesus
TTITLE19=when the roll is called up yonder
EXTD=
EXTT0=
EXTT1=
EXTT2=
EXTT3=
EXTT4=
EXTT5=
EXTT6=
EXTT7=
EXTT8=
EXTT9=
EXTT10=
EXTT11=
EXTT12=
EXTT13=
EXTT14=
EXTT15=
EXTT16=
EXTT17=
EXTT18=
EXTT19=
PLAYORDER=
